<svg width="32" height="32" viewBox="0 0 32 32" fill="none" xmlns="http://www.w3.org/2000/svg">
<g clip-path="url(#clip0_2054_132)">
<path d="M12 9.14314V22.8574L8 20.5717V6.85742L12 9.14314Z" fill="#800B00"/>
<path d="M12.0001 22.8571L7.99996 25.1429L3.99998 22.8571L7.99996 20.5714L12.0001 22.8571Z" fill="#FFB580"/>
<path d="M16.0001 2.28571L8.00011 6.85714L3.99998 9.14286L0 6.85714L11.9999 0L16.0001 2.28571Z" fill="#FFB580"/>
<path fill-rule="evenodd" clip-rule="evenodd" d="M15.9999 25.1433L4 32.0004V9.14328L15.9999 2.28613V25.1433ZM7.99998 11.429V25.1433L12 22.8576V9.14328L7.99998 11.429Z" fill="#FF3E00"/>
<path d="M3.99998 9.14314V32.0003L0 29.7146V6.85742L3.99998 9.14314Z" fill="#800B00"/>
<path d="M20 18.2857L28.0001 22.8571L24 25.1429L16 20.5714L20 18.2857Z" fill="#EA80FF"/>
<path d="M24 11.4286L32.0001 16L27.9999 18.2857L20 13.7143L24 11.4286Z" fill="#EA80FF"/>
<path d="M20 0L32.0001 6.85714L27.9999 9.14286L16 2.28571L20 0Z" fill="#EA80FF"/>
<path d="M31.9999 29.7146L28 32.0003V18.286L31.9999 16.0003V29.7146Z" fill="#AA00FF"/>
<path d="M24 11.4289L20 13.7146V9.14314L24 6.85742V11.4289Z" fill="#AA00FF"/>
<path d="M31.9999 11.4289L28 13.7146V9.14314L31.9999 6.85742V11.4289Z" fill="#AA00FF"/>
<path d="M27.9999 9.14328V13.7147L20 9.14328V13.7147L27.9999 18.2861V32.0004L16 25.1433V20.5718L24 25.1433V20.5718L16 16.0004V2.28613L27.9999 9.14328Z" fill="#400080"/>
</g>
<defs>
<clipPath id="clip0_2054_132">
<rect width="32" height="32" fill="white"/>
</clipPath>
</defs>
</svg>
